<svg width="463" height="468" viewBox="0 0 463 468" fill="none" xmlns="http://www.w3.org/2000/svg">
<rect opacity="0.2" x="54" y="39" width="409" height="429" rx="14" fill="#6FDDEB"/>
<path d="M66.1325 0.41792C66.2364 0.287552 66.3683 0.182279 66.5185 0.109926C66.6687 0.037573 66.8333 0 67 0C67.1667 0 67.3313 0.037573 67.4815 0.109926C67.6317 0.182279 67.7636 0.287552 67.8675 0.41792L70.6908 3.95899C70.7864 4.07886 70.9058 4.17762 71.0414 4.24903C71.1771 4.32045 71.3261 4.36297 71.479 4.37392C71.6319 4.38486 71.7854 4.36399 71.9299 4.31263C72.0743 4.26126 72.2066 4.18051 72.3182 4.07548L75.6174 0.97149C75.7388 0.857226 75.8843 0.771778 76.0433 0.721496C76.2022 0.671214 76.3704 0.657391 76.5354 0.681054C76.7004 0.704716 76.8579 0.765256 76.9963 0.858175C77.1347 0.951093 77.2504 1.074 77.3347 1.21777L79.6244 5.12604C79.7019 5.25846 79.806 5.37336 79.9302 5.46348C80.0544 5.55359 80.1959 5.61697 80.3458 5.64961C80.4958 5.68224 80.6508 5.68342 80.8012 5.65306C80.9516 5.62271 81.0941 5.56149 81.2197 5.47327L84.926 2.8696C85.0623 2.77391 85.2185 2.71016 85.3829 2.68308C85.5473 2.656 85.7156 2.66628 85.8755 2.71317C86.0353 2.76006 86.1826 2.84235 86.3063 2.95394C86.43 3.06552 86.5269 3.20353 86.59 3.35772L88.3017 7.55221C88.3597 7.69415 88.4464 7.82253 88.5565 7.92927C88.6665 8.036 88.7975 8.11877 88.9411 8.17235C89.0848 8.22593 89.2379 8.24915 89.391 8.24056C89.5441 8.23197 89.6937 8.19174 89.8304 8.12242L93.8696 6.07343C94.0183 5.99794 94.1821 5.95695 94.3488 5.95351C94.5156 5.95007 94.6809 5.98427 94.8326 6.05357C94.9843 6.12286 95.1184 6.22546 95.225 6.35374C95.3316 6.48203 95.4079 6.63269 95.4482 6.79452L96.5453 11.1887C96.5825 11.3373 96.65 11.4767 96.7437 11.5979C96.8373 11.7192 96.9551 11.8197 97.0896 11.8932C97.224 11.9666 97.3722 12.0115 97.5248 12.0248C97.6775 12.0382 97.8312 12.0198 97.9764 11.9708L102.267 10.5175C102.425 10.464 102.593 10.4467 102.759 10.467C102.924 10.4874 103.083 10.5448 103.223 10.635C103.364 10.7252 103.482 10.8458 103.569 10.988C103.656 11.1301 103.71 11.2901 103.727 11.456L104.187 15.9623C104.202 16.1148 104.249 16.2624 104.325 16.3959C104.4 16.5293 104.503 16.6456 104.626 16.7374C104.748 16.8293 104.889 16.8946 105.038 16.9294C105.188 16.9642 105.343 16.9677 105.493 16.9396L109.946 16.112C110.11 16.0815 110.279 16.0884 110.44 16.1321C110.601 16.1757 110.749 16.2551 110.875 16.3642C111.001 16.4734 111.101 16.6095 111.167 16.7625C111.234 16.9155 111.264 17.0815 111.258 17.248L111.071 21.7742C111.065 21.9275 111.09 22.0804 111.146 22.2233C111.202 22.3662 111.287 22.4959 111.396 22.6044C111.504 22.7128 111.634 22.7975 111.777 22.8532C111.92 22.9089 112.073 22.9343 112.226 22.9279L116.751 22.7416C116.918 22.7347 117.084 22.7656 117.237 22.8317C117.39 22.8978 117.526 22.9976 117.635 23.1236C117.744 23.2496 117.823 23.3986 117.867 23.5594C117.911 23.7203 117.917 23.8889 117.887 24.0528L117.059 28.5058C117.031 28.6565 117.035 28.8115 117.07 28.9608C117.104 29.1102 117.17 29.2507 117.262 29.3735C117.353 29.4963 117.47 29.5987 117.603 29.6743C117.737 29.7499 117.884 29.797 118.037 29.8126L122.543 30.273C122.709 30.2899 122.869 30.3439 123.011 30.4311C123.153 30.5182 123.273 30.6363 123.363 30.7764C123.454 30.9166 123.511 31.0752 123.531 31.2406C123.552 31.406 123.535 31.5739 123.481 31.7318L122.028 36.0217C121.979 36.167 121.96 36.321 121.973 36.4738C121.987 36.6267 122.031 36.7752 122.105 36.9099C122.178 37.0446 122.279 37.1626 122.4 37.2565C122.522 37.3503 122.661 37.4179 122.81 37.455L127.204 38.551C127.366 38.5913 127.517 38.6676 127.645 38.7742C127.773 38.8808 127.876 39.0149 127.945 39.1666C128.015 39.3183 128.049 39.4836 128.045 39.6504C128.042 39.8171 128.001 39.9809 127.926 40.1297L125.877 44.1677C125.807 44.3046 125.766 44.4544 125.758 44.6077C125.749 44.761 125.772 44.9145 125.825 45.0584C125.879 45.2023 125.962 45.3335 126.069 45.4437C126.176 45.5539 126.305 45.6407 126.447 45.6986L130.64 47.4082C130.795 47.4711 130.933 47.568 131.045 47.6917C131.156 47.8155 131.239 47.9628 131.286 48.1228C131.333 48.2829 131.343 48.4514 131.316 48.616C131.289 48.7805 131.225 48.9368 131.129 49.0733L128.526 52.7797C128.437 52.9052 128.376 53.0477 128.346 53.1981C128.316 53.3485 128.317 53.5036 128.349 53.6535C128.382 53.8034 128.445 53.9449 128.535 54.0691C128.626 54.1933 128.74 54.2974 128.873 54.3749L132.781 56.6646C132.925 56.749 133.048 56.8647 133.141 57.0031C133.234 57.1414 133.294 57.299 133.318 57.464C133.342 57.629 133.328 57.7972 133.277 57.9561C133.227 58.115 133.142 58.2606 133.027 58.3819L129.923 61.6812C129.818 61.7928 129.738 61.9251 129.686 62.0695C129.635 62.214 129.614 62.3675 129.625 62.5204C129.636 62.6733 129.678 62.8223 129.75 62.958C129.821 63.0936 129.92 63.213 130.04 63.3086L133.582 66.1319C133.712 66.2358 133.818 66.3678 133.89 66.518C133.962 66.6682 134 66.8327 134 66.9994C134 67.1662 133.962 67.3307 133.89 67.4809C133.818 67.6311 133.712 67.7631 133.582 67.867L130.04 70.6903C129.92 70.7859 129.821 70.9052 129.75 71.0409C129.678 71.1766 129.636 71.3255 129.625 71.4785C129.614 71.6314 129.635 71.7849 129.686 71.9294C129.738 72.0738 129.818 72.206 129.923 72.3177L133.027 75.6169C133.142 75.7383 133.227 75.8839 133.277 76.0428C133.328 76.2017 133.342 76.3699 133.318 76.5349C133.294 76.6999 133.234 76.8574 133.141 76.9958C133.048 77.1342 132.925 77.2499 132.781 77.3342L128.873 79.6239C128.74 79.7015 128.626 79.8056 128.535 79.9298C128.445 80.054 128.382 80.1955 128.349 80.3454C128.317 80.4953 128.316 80.6504 128.346 80.8008C128.376 80.9512 128.437 81.0937 128.526 81.2192L131.129 84.9256C131.225 85.062 131.289 85.2182 131.316 85.3827C131.343 85.5471 131.332 85.7155 131.285 85.8754C131.238 86.0352 131.156 86.1825 131.044 86.3061C130.932 86.4298 130.794 86.5267 130.64 86.5896L126.447 88.3014C126.305 88.3593 126.176 88.446 126.07 88.5561C125.963 88.6661 125.88 88.7971 125.827 88.9407C125.773 89.0844 125.75 89.2376 125.758 89.3906C125.767 89.5437 125.807 89.6933 125.877 89.8301L127.926 93.8703C128.001 94.019 128.042 94.1827 128.045 94.3493C128.048 94.5159 128.014 94.6811 127.945 94.8327C127.875 94.9843 127.773 95.1183 127.645 95.2248C127.517 95.3313 127.366 95.4075 127.204 95.4479L122.81 96.545C122.662 96.5822 122.522 96.6497 122.401 96.7434C122.28 96.837 122.179 96.9548 122.106 97.0892C122.032 97.2237 121.988 97.3719 121.974 97.5245C121.961 97.6772 121.979 97.8309 122.028 97.9761L123.481 102.267C123.535 102.425 123.552 102.593 123.532 102.759C123.512 102.924 123.454 103.083 123.364 103.223C123.274 103.364 123.153 103.482 123.011 103.569C122.869 103.656 122.709 103.71 122.543 103.727L118.037 104.186C117.884 104.202 117.737 104.249 117.603 104.325C117.47 104.4 117.353 104.503 117.262 104.625C117.17 104.748 117.104 104.889 117.07 105.038C117.035 105.187 117.031 105.342 117.059 105.493L117.887 109.946C117.917 110.11 117.911 110.279 117.867 110.439C117.823 110.6 117.744 110.749 117.635 110.875C117.526 111.001 117.39 111.101 117.237 111.167C117.084 111.233 116.918 111.264 116.751 111.257L112.226 111.071C112.073 111.065 111.92 111.09 111.777 111.146C111.634 111.202 111.504 111.286 111.395 111.395C111.287 111.503 111.202 111.633 111.146 111.776C111.09 111.919 111.065 112.072 111.071 112.226L111.258 116.751C111.264 116.917 111.234 117.083 111.167 117.236C111.101 117.389 111.001 117.526 110.875 117.635C110.749 117.744 110.601 117.823 110.44 117.867C110.279 117.91 110.11 117.917 109.946 117.887L105.493 117.059C105.343 117.031 105.187 117.035 105.038 117.07C104.889 117.104 104.748 117.17 104.625 117.262C104.502 117.354 104.4 117.47 104.325 117.604C104.249 117.737 104.202 117.885 104.187 118.038L103.726 122.543C103.709 122.709 103.655 122.868 103.568 123.011C103.481 123.153 103.363 123.273 103.223 123.363C103.083 123.454 102.924 123.511 102.758 123.531C102.593 123.552 102.425 123.535 102.267 123.481L97.9775 122.028C97.8323 121.979 97.6784 121.96 97.5256 121.974C97.3729 121.987 97.2245 122.032 97.09 122.105C96.9554 122.179 96.8375 122.279 96.7438 122.401C96.65 122.522 96.5825 122.661 96.5453 122.81L95.4482 127.204C95.4079 127.366 95.3316 127.517 95.225 127.645C95.1184 127.773 94.9843 127.876 94.8326 127.945C94.6809 128.015 94.5156 128.049 94.3488 128.045C94.1821 128.042 94.0183 128.001 93.8696 127.925L89.8315 125.876C89.6947 125.807 89.5449 125.766 89.3916 125.757C89.2382 125.749 89.0848 125.772 88.9409 125.825C88.797 125.879 88.6658 125.962 88.5555 126.069C88.4453 126.176 88.3585 126.304 88.3006 126.447L86.5911 130.64C86.5282 130.795 86.4313 130.933 86.3075 131.045C86.1838 131.156 86.0365 131.239 85.8764 131.286C85.7164 131.333 85.5479 131.343 85.3833 131.316C85.2188 131.289 85.0624 131.225 84.926 131.129L81.2197 128.527C81.0942 128.438 80.9518 128.377 80.8014 128.347C80.6511 128.316 80.496 128.317 80.3461 128.35C80.1962 128.382 80.0547 128.446 79.9304 128.536C79.8062 128.626 79.702 128.741 79.6244 128.873L77.3347 132.781C77.2504 132.925 77.1347 133.048 76.9962 133.141C76.8577 133.234 76.7 133.295 76.5349 133.319C76.3697 133.342 76.2014 133.328 76.0423 133.278C75.8833 133.227 75.7377 133.142 75.6163 133.027L72.3182 129.923C72.2066 129.818 72.0743 129.738 71.9299 129.686C71.7854 129.635 71.6319 129.614 71.479 129.625C71.3261 129.636 71.1771 129.678 71.0414 129.75C70.9058 129.821 70.7864 129.92 70.6908 130.04L67.8675 133.582C67.7636 133.712 67.6317 133.818 67.4815 133.89C67.3313 133.962 67.1667 134 67 134C66.8333 134 66.6687 133.962 66.5185 133.89C66.3683 133.818 66.2364 133.712 66.1325 133.582L63.3092 130.04C63.2136 129.92 63.0942 129.821 62.9586 129.75C62.8229 129.678 62.6739 129.636 62.521 129.625C62.3681 129.614 62.2146 129.635 62.0701 129.686C61.9257 129.738 61.7934 129.818 61.6818 129.923L58.3826 133.027C58.2612 133.142 58.1157 133.227 57.9567 133.277C57.7978 133.328 57.6296 133.341 57.4646 133.318C57.2996 133.294 57.1421 133.234 57.0037 133.141C56.8653 133.048 56.7496 132.925 56.6653 132.781L54.3756 128.873C54.298 128.741 54.1938 128.626 54.0696 128.536C53.9453 128.446 53.8038 128.382 53.6539 128.35C53.504 128.317 53.3489 128.316 53.1986 128.347C53.0482 128.377 52.9058 128.438 52.7803 128.527L49.074 131.129C48.9376 131.225 48.7813 131.289 48.6169 131.316C48.4525 131.343 48.2841 131.332 48.1242 131.285C47.9644 131.238 47.8171 131.156 47.6935 131.044C47.5698 130.932 47.4729 130.794 47.41 130.64L45.6983 126.447C45.6403 126.305 45.5536 126.176 45.4435 126.07C45.3335 125.963 45.2025 125.88 45.0589 125.827C44.9152 125.773 44.7621 125.75 44.609 125.758C44.4559 125.767 44.3063 125.807 44.1696 125.876L40.1304 127.925C39.9817 128.001 39.8179 128.042 39.6512 128.045C39.4844 128.049 39.3191 128.015 39.1674 127.945C39.0157 127.876 38.8815 127.773 38.775 127.645C38.6684 127.517 38.5921 127.366 38.5518 127.204L37.4547 122.81C37.4175 122.662 37.35 122.522 37.2563 122.401C37.1627 122.28 37.0449 122.179 36.9104 122.106C36.776 122.032 36.6278 121.987 36.4752 121.974C36.3225 121.961 36.1688 121.979 36.0236 122.028L31.7326 123.481C31.5747 123.535 31.4067 123.552 31.2412 123.532C31.0756 123.512 30.9168 123.454 30.7765 123.364C30.6362 123.274 30.5181 123.153 30.4309 123.011C30.3436 122.869 30.2896 122.709 30.2727 122.543L29.8135 118.038C29.798 117.885 29.751 117.737 29.6754 117.604C29.5999 117.47 29.4975 117.354 29.3747 117.262C29.2519 117.17 29.1113 117.104 28.9619 117.07C28.8125 117.035 28.6575 117.031 28.5067 117.059L24.0537 117.887C23.8898 117.917 23.7212 117.91 23.5603 117.867C23.3995 117.823 23.2505 117.744 23.1245 117.635C22.9985 117.526 22.8988 117.389 22.8326 117.236C22.7665 117.083 22.7357 116.917 22.7425 116.751L22.9288 112.226C22.9353 112.073 22.9098 111.92 22.8541 111.777C22.7984 111.634 22.7137 111.504 22.6053 111.395C22.4968 111.287 22.3671 111.202 22.2242 111.146C22.0813 111.09 21.9284 111.065 21.7751 111.071L17.249 111.257C17.0824 111.264 16.9165 111.233 16.7635 111.167C16.6105 111.101 16.4743 111.001 16.3652 110.875C16.256 110.749 16.1767 110.6 16.133 110.439C16.0894 110.279 16.0825 110.11 16.113 109.946L16.9406 105.493C16.9687 105.342 16.9652 105.187 16.9303 105.038C16.8954 104.888 16.83 104.748 16.738 104.625C16.6461 104.502 16.5296 104.4 16.3961 104.324C16.2625 104.249 16.1148 104.202 15.9621 104.186L11.4571 103.727C11.2911 103.71 11.1311 103.656 10.989 103.569C10.8468 103.482 10.7262 103.364 10.636 103.223C10.5458 103.083 10.4884 102.924 10.4681 102.759C10.4477 102.593 10.465 102.425 10.5185 102.267L11.9718 97.9772C12.021 97.832 12.0395 97.6781 12.0263 97.5253C12.013 97.3726 11.9682 97.2242 11.8947 97.0897C11.8212 96.9551 11.7206 96.8372 11.5993 96.7435C11.4779 96.6497 11.3385 96.5821 11.1897 96.545L6.79557 95.4479C6.63389 95.4075 6.48338 95.3313 6.35522 95.2248C6.22705 95.1183 6.12452 94.9843 6.05525 94.8327C5.98597 94.6811 5.95173 94.5159 5.95506 94.3493C5.95839 94.1827 5.99921 94.019 6.07449 93.8703L8.12346 89.8301C8.19278 89.6933 8.23301 89.5437 8.2416 89.3906C8.25019 89.2376 8.22697 89.0844 8.17339 88.9407C8.11981 88.7971 8.03705 88.6661 7.93031 88.5561C7.82358 88.446 7.69519 88.3593 7.55326 88.3014L3.35991 86.5907C3.20546 86.5278 3.06718 86.4309 2.95536 86.3071C2.84353 86.1834 2.76105 86.0361 2.71404 85.876C2.66702 85.716 2.65669 85.5475 2.68382 85.3829C2.71094 85.2184 2.77481 85.062 2.87069 84.9256L5.47433 81.2192C5.56255 81.0937 5.62378 80.9512 5.65413 80.8008C5.68448 80.6504 5.6833 80.4953 5.65067 80.3454C5.61804 80.1955 5.55466 80.054 5.46454 79.9298C5.37442 79.8056 5.25952 79.7015 5.12711 79.6239L1.21887 77.3342C1.0751 77.2499 0.952195 77.1342 0.859277 76.9958C0.766359 76.8574 0.705819 76.6999 0.682157 76.5349C0.658495 76.3699 0.672318 76.2017 0.722599 76.0428C0.772881 75.8839 0.858328 75.7383 0.972591 75.6169L4.07655 72.3177C4.18159 72.206 4.26233 72.0738 4.3137 71.9294C4.36506 71.7849 4.38593 71.6314 4.37499 71.4785C4.36404 71.3255 4.32152 71.1766 4.25011 71.0409C4.1787 70.9052 4.07994 70.7859 3.96007 70.6903L0.417916 67.867C0.28755 67.7631 0.182278 67.6311 0.109925 67.4809C0.0375726 67.3307 0 67.1662 0 66.9994C0 66.8327 0.0375726 66.6682 0.109925 66.518C0.182278 66.3678 0.28755 66.2358 0.417916 66.1319L3.96007 63.3086C4.07994 63.213 4.1787 63.0936 4.25011 62.958C4.32152 62.8223 4.36404 62.6733 4.37499 62.5204C4.38593 62.3675 4.36506 62.214 4.3137 62.0695C4.26233 61.9251 4.18159 61.7928 4.07655 61.6812L0.971482 58.3819C0.857219 58.2606 0.771772 58.115 0.72149 57.9561C0.671209 57.7972 0.657386 57.629 0.681048 57.464C0.70471 57.299 0.765249 57.1414 0.858167 57.0031C0.951085 56.8647 1.07399 56.749 1.21776 56.6646L5.126 54.3749C5.25841 54.2974 5.37331 54.1933 5.46343 54.0691C5.55355 53.9449 5.61693 53.8034 5.64956 53.6535C5.68219 53.5036 5.68337 53.3485 5.65302 53.1981C5.62267 53.0477 5.56145 52.9052 5.47322 52.7797L2.86958 49.0744C2.77346 48.938 2.70936 48.7817 2.68205 48.617C2.65473 48.4524 2.66491 48.2837 2.71183 48.1236C2.75874 47.9634 2.84118 47.8159 2.95301 47.6921C3.06483 47.5682 3.20316 47.4711 3.35769 47.4082L7.55215 45.6975C7.69408 45.6396 7.82247 45.5529 7.9292 45.4428C8.03594 45.3328 8.11871 45.2018 8.17228 45.0581C8.22586 44.9145 8.24909 44.7613 8.24049 44.6083C8.2319 44.4552 8.19167 44.3056 8.12235 44.1688L6.07449 40.1297C5.999 39.9809 5.95801 39.8171 5.95457 39.6504C5.95113 39.4836 5.98533 39.3183 6.05463 39.1666C6.12392 39.0149 6.22652 38.8808 6.3548 38.7742C6.48308 38.6676 6.63374 38.5913 6.79557 38.551L11.1897 37.455C11.3386 37.4179 11.4782 37.3503 11.5996 37.2565C11.7211 37.1626 11.8217 37.0446 11.8952 36.9099C11.9687 36.7752 12.0135 36.6267 12.0267 36.4738C12.0398 36.321 12.0212 36.167 11.9718 36.0217L10.5185 31.7318C10.4652 31.5739 10.4481 31.406 10.4685 31.2406C10.489 31.0752 10.5464 30.9166 10.6366 30.7764C10.7267 30.6363 10.8473 30.5182 10.9894 30.4311C11.1314 30.3439 11.2913 30.2899 11.4571 30.273L15.9632 29.8126C16.1158 29.797 16.2634 29.7499 16.3968 29.6743C16.5303 29.5987 16.6466 29.4963 16.7384 29.3735C16.8302 29.2507 16.8956 29.1102 16.9304 28.9608C16.9652 28.8115 16.9687 28.6565 16.9406 28.5058L16.113 24.0528C16.0825 23.8889 16.0894 23.7203 16.133 23.5594C16.1767 23.3986 16.256 23.2496 16.3652 23.1236C16.4743 22.9976 16.6105 22.8978 16.7635 22.8317C16.9165 22.7656 17.0824 22.7347 17.249 22.7416L21.7751 22.9279C21.9283 22.9342 22.0811 22.9086 22.2239 22.8529C22.3667 22.7971 22.4964 22.7123 22.6049 22.6039C22.7133 22.4955 22.798 22.3658 22.8538 22.223C22.9095 22.0802 22.9351 21.9274 22.9288 21.7742L22.7425 17.248C22.7357 17.0815 22.7665 16.9155 22.8326 16.7625C22.8988 16.6095 22.9985 16.4734 23.1245 16.3642C23.2505 16.2551 23.3995 16.1757 23.5603 16.1321C23.7212 16.0884 23.8898 16.0815 24.0537 16.112L28.5067 16.9396C28.6574 16.9677 28.8123 16.9642 28.9617 16.9294C29.111 16.8946 29.2515 16.8293 29.3743 16.7374C29.4971 16.6456 29.5995 16.5293 29.6751 16.3959C29.7507 16.2624 29.7978 16.1148 29.8135 15.9623L30.2739 11.456C30.2907 11.2902 30.3448 11.1304 30.4319 10.9883C30.5191 10.8463 30.6371 10.7257 30.7773 10.6355C30.9174 10.5454 31.0761 10.4879 31.2415 10.4675C31.4069 10.4471 31.5748 10.4642 31.7326 10.5175L36.0225 11.9708C36.1677 12.02 36.3216 12.0385 36.4743 12.0252C36.6271 12.012 36.7755 11.9672 36.91 11.8937C37.0446 11.8202 37.1625 11.7196 37.2562 11.5983C37.35 11.4769 37.4175 11.3375 37.4547 11.1887L38.5518 6.79452C38.5921 6.63269 38.6684 6.48203 38.775 6.35374C38.8815 6.22546 39.0157 6.12286 39.1674 6.05357C39.3191 5.98427 39.4844 5.95007 39.6512 5.95351C39.8179 5.95695 39.9817 5.99794 40.1304 6.07343L44.1685 8.12242C44.3053 8.19211 44.4551 8.23263 44.6084 8.24142C44.7617 8.25021 44.9152 8.22707 45.0591 8.17347C45.203 8.11987 45.3342 8.03697 45.4444 7.93003C45.5547 7.82309 45.6415 7.69444 45.6994 7.55221L47.4089 3.35883C47.4719 3.20447 47.5689 3.0663 47.6927 2.95459C47.8165 2.84289 47.9639 2.76052 48.1239 2.71362C48.2839 2.66672 48.4524 2.65648 48.6169 2.68368C48.7814 2.71088 48.9376 2.77481 49.074 2.87071L52.7803 5.47327C52.9059 5.56149 53.0484 5.62271 53.1988 5.65306C53.3492 5.68342 53.5042 5.68224 53.6541 5.64961C53.8041 5.61697 53.9456 5.55359 54.0698 5.46348C54.194 5.37336 54.2981 5.25846 54.3756 5.12604L56.6653 1.21777C56.7496 1.07381 56.8653 0.950735 57.0038 0.857691C57.1423 0.764647 57.3 0.704034 57.4651 0.680366C57.6303 0.656697 57.7986 0.670582 57.9577 0.720986C58.1167 0.77139 58.2623 0.857016 58.3837 0.97149L61.6818 4.07548C61.7934 4.18051 61.9257 4.26126 62.0701 4.31263C62.2146 4.36399 62.3681 4.38486 62.521 4.37392C62.6739 4.36297 62.8229 4.32045 62.9586 4.24903C63.0942 4.17762 63.2136 4.07886 63.3092 3.95899L66.1325 0.41792Z" fill="#00D4F0"/>
<path d="M23 58.4155L23.3482 45.906L27.4049 45.2607C28.1503 45.1421 28.7685 45.1796 29.2593 45.3732C29.7534 45.5662 30.1187 45.8851 30.3551 46.33C30.591 46.7708 30.6995 47.3049 30.6806 47.9322C30.6635 48.4215 30.5689 48.8622 30.3969 49.2544C30.2282 49.6461 30.0031 49.9819 29.7215 50.2618C29.44 50.5418 29.1246 50.7581 28.7756 50.911L28.7688 51.0337C29.1536 50.9927 29.5126 51.0694 29.8458 51.2637C30.1786 51.454 30.4447 51.7563 30.6442 52.1705C30.8437 52.5847 30.9349 53.0992 30.9181 53.7141C30.8998 54.3778 30.7502 54.9915 30.4694 55.5551C30.1881 56.1147 29.7832 56.5865 29.2546 56.9706C28.7294 57.3541 28.0875 57.6063 27.3289 57.7269L23 58.4155ZM25.2084 55.9115L26.9548 55.6337C27.5485 55.5393 27.9868 55.3277 28.2697 54.9989C28.5527 54.6701 28.7005 54.2716 28.7132 53.8033C28.7192 53.4578 28.6586 53.1634 28.5314 52.9201C28.4076 52.6763 28.2222 52.499 27.9752 52.3883C27.7316 52.277 27.435 52.2492 27.0854 52.3048L25.2944 52.5897L25.2084 55.9115ZM25.351 50.7989L26.939 50.5463C27.2293 50.5002 27.4914 50.3956 27.7253 50.2328C27.962 50.0654 28.1486 49.8532 28.285 49.5964C28.4243 49.3351 28.4981 49.0416 28.5062 48.716C28.5169 48.2602 28.3956 47.9167 28.1422 47.6853C27.8917 47.4495 27.5307 47.3691 27.059 47.4441L25.4363 47.7022L25.351 50.7989Z" fill="#000D19"/>
<path d="M33.7494 48.8549L36.1637 48.4709C36.9684 48.3429 37.6568 48.3935 38.2287 48.6228C38.8034 48.8476 39.2406 49.226 39.5402 49.7581C39.843 50.2897 39.9822 50.9507 39.9576 51.7411C39.9358 52.527 39.7575 53.2465 39.4227 53.8998C39.0875 54.5491 38.6229 55.0892 38.029 55.5201C37.4384 55.9506 36.7423 56.2295 35.9409 56.357L32.1512 56.9598L32.4994 44.4503L34.6416 44.1096L34.3537 54.4933L36.0011 54.2312C36.3837 54.1704 36.7094 54.0334 36.9781 53.8204C37.2497 53.6029 37.4577 53.3407 37.6021 53.034C37.7493 52.7227 37.8262 52.3963 37.8326 52.0548C37.8489 51.5576 37.7085 51.1623 37.4115 50.869C37.114 50.5718 36.6783 50.4688 36.1044 50.56L33.6902 50.9441L33.7494 48.8549ZM43.2449 42.7411L42.8968 55.2506L40.7595 55.5905L41.1077 43.0811L43.2449 42.7411Z" fill="#000D19"/>
<path d="M53.6206 41.0907L53.2725 53.6001L51.155 53.937L51.4505 43.5764L47.3541 44.228L47.0587 54.5886L44.9412 54.9254L45.2894 42.4159L53.6206 41.0907Z" fill="#000D19"/>
<path d="M56.4137 53.2707L56.4763 51.1202L57.0254 51.0329C57.2992 50.9893 57.5208 50.9136 57.6902 50.8055C57.8592 50.6935 57.996 50.5481 58.1007 50.3693C58.2049 50.1865 58.2949 49.9654 58.3706 49.7061L58.5101 49.2765L55.0714 40.8599L57.2878 40.5073L59.5077 46.284L61.6711 39.8101L63.8528 39.463L60.0914 50.0709C59.9068 50.5624 59.6939 51.026 59.4528 51.4616C59.2117 51.8973 58.9096 52.2656 58.5464 52.5666C58.1833 52.8676 57.7247 53.0622 57.1706 53.1503L56.4137 53.2707Z" fill="#000D19"/>
<path d="M78.2805 47.585L78.0062 52.5969L76.0619 52.9062L76.1438 49.9621L75.3176 50.0935L75.3715 48.0477L78.2805 47.585ZM65.4397 39.2106L67.5324 38.8777L67.2495 49.2606L70.1585 48.7979L70.4414 38.415L72.5242 38.0837L72.2413 48.4666L75.1156 48.0094L75.3986 37.6265L77.4814 37.2952L77.1332 49.8047L65.0915 51.7201L65.4397 39.2106Z" fill="#000D19"/>
<path d="M79.5017 49.4279L79.8499 36.9184L86.6772 35.8324L86.6128 38.0136L81.9278 38.7589L81.8498 41.7388L86.1836 41.0495L86.1193 43.2307L81.7855 43.92L81.7082 46.906L86.4131 46.1576L86.3488 48.3388L79.5017 49.4279Z" fill="#000D19"/>
<path d="M88.0321 48.071L88.3803 35.5615L90.5224 35.2208L90.3802 40.3819L94.7289 39.6902L94.8711 34.529L97.0083 34.1891L96.6602 46.6986L94.5229 47.0385L94.6645 41.8714L90.3159 42.5631L90.1743 47.7303L88.0321 48.071Z" fill="#000D19"/>
<path d="M100.173 46.1398L97.8772 46.505L101.723 33.4391L104.484 33L107.628 44.9539L105.333 45.319L103.072 36.0705L102.993 36.0831L100.173 46.1398ZM100.173 41.2445L105.595 40.382L105.528 42.4481L100.106 43.3106L100.173 41.2445Z" fill="#000D19"/>
<path d="M43.069 77.3403L43.4172 64.8308L45.5594 64.4901L45.4171 69.6512L49.7658 68.9595L49.908 63.7983L52.0453 63.4584L51.6971 75.9679L49.5599 76.3078L49.7015 71.1407L45.3528 71.8324L45.2112 76.9996L43.069 77.3403Z" fill="#000D19"/>
<path d="M62.9466 68.1217C62.9043 69.4581 62.6674 70.6249 62.2358 71.6219C61.8076 72.6184 61.2383 73.4144 60.5281 74.0098C59.8212 74.6046 59.0291 74.9719 58.1518 75.1114C57.2316 75.2578 56.4108 75.1309 55.6894 74.7308C54.9713 74.3302 54.4117 73.6752 54.0107 72.7661C53.6092 71.8529 53.427 70.7042 53.4641 69.3199C53.4993 67.9805 53.7327 66.8123 54.1643 65.8152C54.5954 64.8142 55.1675 64.0138 55.8806 63.4138C56.5933 62.8099 57.3899 62.438 58.2705 62.2979C59.1841 62.1526 60.0002 62.2822 60.7187 62.6868C61.4405 63.0909 62.0007 63.7518 62.3993 64.6695C62.8008 65.5827 62.9832 66.7334 62.9466 68.1217ZM60.7811 68.156C60.8049 67.2968 60.7231 66.5922 60.5357 66.0423C60.3511 65.4879 60.0795 65.0892 59.7209 64.8462C59.3622 64.6033 58.9339 64.5214 58.4359 64.6006C57.895 64.6867 57.4164 64.929 57.0001 65.3277C56.5872 65.7258 56.2596 66.2603 56.0173 66.9313C55.7778 67.5978 55.647 68.3828 55.6246 69.2863C55.5979 70.1501 55.6781 70.8549 55.8651 71.4008C56.0554 71.9462 56.3313 72.3381 56.6928 72.5766C57.0572 72.8105 57.4867 72.8881 57.9815 72.8094C58.5191 72.7239 58.9931 72.4864 59.4036 72.0967C59.817 71.7026 60.1437 71.1743 60.3835 70.5118C60.6229 69.8453 60.7555 69.0601 60.7811 68.156Z" fill="#000D19"/>
<path d="M64.3609 73.9535L64.7091 61.444L68.7659 60.7987C69.5113 60.6801 70.1294 60.7176 70.6202 60.9111C71.1143 61.1042 71.4796 61.4231 71.716 61.8679C71.9519 62.3088 72.0604 62.8429 72.0415 63.4702C72.0244 63.9594 71.9298 64.4001 71.7578 64.7924C71.5891 65.1841 71.364 65.5199 71.0824 65.7998C70.8009 66.0797 70.4856 66.2961 70.1365 66.4489L70.1297 66.5716C70.5145 66.5307 70.8735 66.6074 71.2067 66.8017C71.5395 66.992 71.8056 67.2942 72.0051 67.7085C72.2046 68.1227 72.2959 68.6372 72.279 69.2521C72.2607 69.9158 72.1111 70.5294 71.8303 71.093C71.549 71.6526 71.1441 72.1245 70.6156 72.5086C70.0903 72.8921 69.4484 73.1442 68.6898 73.2649L64.3609 73.9535ZM66.5694 71.4495L68.3158 71.1717C68.9094 71.0772 69.3477 70.8656 69.6307 70.5368C69.9136 70.208 70.0614 69.8095 70.0742 69.3413C70.0801 68.9957 70.0195 68.7013 69.8924 68.458C69.7685 68.2142 69.5831 68.037 69.3361 67.9262C69.0925 67.815 68.7959 67.7872 68.4463 67.8428L66.6553 68.1277L66.5694 71.4495ZM66.7119 66.3369L68.3 66.0843C68.5902 66.0381 68.8523 65.9336 69.0862 65.7707C69.3229 65.6033 69.5095 65.3912 69.646 65.1344C69.7853 64.873 69.859 64.5795 69.8671 64.2539C69.8778 63.7982 69.7565 63.4546 69.5032 63.2233C69.2527 62.9875 68.8916 62.9071 68.4199 62.9821L66.7972 63.2402L66.7119 66.3369Z" fill="#000D19"/>
<path d="M75.3179 72.2106L73.0224 72.5757L76.8683 59.5098L79.6289 59.0707L82.7735 71.0246L80.4779 71.3898L78.217 62.1413L78.1378 62.1539L75.3179 72.2106ZM75.318 67.3153L80.7402 66.4528L80.6735 68.5188L75.2512 69.3813L75.318 67.3153Z" fill="#000D19"/>
<path d="M91.7602 69.5951L89.6181 69.9359L89.9049 59.5889L88.4603 59.8186C88.048 59.8842 87.7031 60.0141 87.4257 60.2082C87.1511 60.3979 86.9416 60.646 86.7971 60.9528C86.656 61.259 86.5796 61.6198 86.5678 62.0352C86.5589 62.4461 86.617 62.7794 86.7422 63.0352C86.8707 63.2904 87.0676 63.4659 87.3331 63.5615C87.6018 63.6566 87.9406 63.6716 88.3496 63.6065L90.6748 63.2367L90.6145 65.3625L87.9381 65.7882C87.163 65.9115 86.5045 65.8581 85.9628 65.6281C85.4243 65.3975 85.0178 65.0082 84.7433 64.4599C84.4684 63.9077 84.3411 63.2165 84.3613 62.3862C84.3886 61.5589 84.5527 60.8172 84.8537 60.1613C85.1575 59.5008 85.5852 58.9604 86.1367 58.5403C86.6877 58.1161 87.3458 57.8432 88.111 57.7215L92.1035 57.0864L91.7602 69.5951ZM86.4483 64.7725L88.7587 64.405L86.1352 70.4899L83.7753 70.8653L86.4483 64.7725Z" fill="#000D19"/>
<path d="M31.7767 100.025L28.6701 95.2103L27.9379 95.3268L27.7892 100.659L25.647 101L25.9952 88.4905L28.1374 88.1498L27.9973 93.1464L28.4277 93.0779L31.9319 87.5462L34.5985 87.122L30.4877 93.553L34.4334 99.6024L31.7767 100.025Z" fill="#000D19"/>
<path d="M44.4226 91.9566C44.3803 93.2931 44.1434 94.4598 43.7118 95.4569C43.2835 96.4534 42.7143 97.2493 42.0041 97.8447C41.2972 98.4396 40.5051 98.8068 39.6277 98.9464C38.7075 99.0928 37.8868 98.9659 37.1654 98.5658C36.4473 98.1651 35.8877 97.5102 35.4867 96.601C35.0852 95.6879 34.903 94.5391 34.9401 93.1549C34.9753 91.8155 35.2087 90.6472 35.6403 89.6502C36.0714 88.6492 36.6435 87.8487 37.3566 87.2488C38.0692 86.6449 38.8659 86.2729 39.7465 86.1329C40.6601 85.9875 41.4761 86.1172 42.1947 86.5218C42.9165 86.9259 43.4767 87.5868 43.8753 88.5045C44.2768 89.4177 44.4592 90.5684 44.4226 91.9566ZM42.2571 91.991C42.2809 91.1318 42.1991 90.4272 42.0117 89.8773C41.8271 89.3229 41.5555 88.9242 41.1969 88.6812C40.8382 88.4383 40.4099 88.3564 39.9118 88.4356C39.3709 88.5217 38.8924 88.764 38.4761 89.1626C38.0632 89.5608 37.7355 90.0953 37.4933 90.7663C37.2538 91.4328 37.1229 92.2178 37.1006 93.1213C37.0739 93.985 37.1541 94.6898 37.3411 95.2358C37.5314 95.7812 37.8073 96.1731 38.1688 96.4116C38.5332 96.6455 38.9627 96.7231 39.4574 96.6444C39.995 96.5589 40.4691 96.3213 40.8796 95.9317C41.293 95.5376 41.6196 95.0093 41.8595 94.3468C42.0989 93.6803 42.2315 92.895 42.2571 91.991Z" fill="#000D19"/>
<path d="M45.2877 97.8758L45.353 95.7492L45.6367 95.6737C46.012 95.5775 46.3168 95.3567 46.551 95.0113C46.788 94.6615 46.9723 94.1355 47.1038 93.4335C47.2349 92.7275 47.3309 91.792 47.3919 90.6269L47.7187 85.035L54.5955 83.9411L54.2473 96.4506L52.1645 96.7819L52.4517 86.3923L49.6466 86.8385L49.364 91.2193C49.2759 92.6279 49.1109 93.7933 48.8692 94.7156C48.6274 95.6378 48.2653 96.3481 47.7827 96.8465C47.3035 97.3444 46.6565 97.6581 45.8418 97.7877L45.2877 97.8758Z" fill="#000D19"/>
<path d="M55.4643 96.257L55.5295 94.1304L55.8132 94.0549C56.1886 93.9587 56.4934 93.7379 56.7275 93.3926C56.9646 93.0427 57.1488 92.5168 57.2804 91.8148C57.4115 91.1088 57.5075 90.1732 57.5685 89.0081L57.8953 83.4162L64.772 82.3224L64.4239 94.8319L62.341 95.1632L62.6283 84.7735L59.8232 85.2197L59.5405 89.6005C59.4524 91.0091 59.2875 92.1746 59.0457 93.0968C58.804 94.019 58.4418 94.7294 57.9593 95.2277C57.48 95.7256 56.8331 96.0393 56.0184 96.1689L55.4643 96.257Z" fill="#000D19"/>
<path d="M66.19 94.5509L66.5382 82.0414L73.3655 80.9554L73.3011 83.1366L68.6161 83.8819L68.5381 86.8619L72.872 86.1725L72.8076 88.3537L68.4738 89.043L68.3965 92.029L73.1014 91.2806L73.0371 93.4618L66.19 94.5509Z" fill="#000D19"/>
<path d="M80.8501 92.219L77.7435 87.4043L77.0113 87.5208L76.8626 92.8533L74.7204 93.194L75.0686 80.6845L77.2107 80.3438L77.0707 85.3404L77.5011 85.2719L81.0053 79.7402L83.6719 79.316L79.561 85.747L83.5068 91.7964L80.8501 92.219Z" fill="#000D19"/>
<path d="M94.4116 87.9577L94.1408 93.0481L92.1025 93.3723L92.1831 90.4163L91.4707 90.5296L91.5372 88.415L94.4116 87.9577ZM84.584 91.625L84.9322 79.1156L86.9903 78.7882L86.7123 89.1703L90.9274 88.4998L91.2054 78.1177L93.2882 77.7864L92.94 90.2959L84.584 91.625Z" fill="#000D19"/>
<path d="M95.9931 77.3561L98.1303 77.0162L97.9105 84.8836L97.9996 84.8694L102.593 76.3063L104.468 76.0081L104.12 88.5176L101.977 88.8583L102.197 80.9849L102.122 80.9967L97.5002 89.5705L95.6449 89.8656L95.9931 77.3561Z" fill="#000D19"/>
<path d="M113.657 87.0005L111.515 87.3413L111.801 76.9942L110.357 77.224C109.945 77.2896 109.6 77.4195 109.322 77.6136C109.048 77.8032 108.838 78.0514 108.694 78.3582C108.553 78.6644 108.476 79.0252 108.464 79.4406C108.455 79.8515 108.514 80.1848 108.639 80.4406C108.767 80.6958 108.964 80.8713 109.23 80.9669C109.498 81.062 109.837 81.077 110.246 81.0119L112.571 80.6421L112.511 82.7679L109.835 83.1936C109.06 83.3169 108.401 83.2635 107.859 83.0335C107.321 82.8029 106.914 82.4135 106.64 81.8653C106.365 81.3131 106.238 80.6218 106.258 79.7916C106.285 78.9643 106.449 78.2226 106.75 77.5666C107.054 76.9062 107.482 76.3658 108.033 75.9457C108.584 75.5215 109.242 75.2486 110.008 75.1269L114 74.4918L113.657 87.0005ZM108.345 82.1779L110.655 81.8104L108.032 87.8953L105.672 88.2707L108.345 82.1779Z" fill="#000D19"/>
</svg>
