<svg width="37" height="37" viewBox="0 0 37 37" fill="none" xmlns="http://www.w3.org/2000/svg">
<circle cx="18.5" cy="18.5" r="18" stroke="#8E8E8E"/>
<path d="M15 24.1591C14.1439 24.1591 13.4148 23.9261 12.8125 23.4602C12.2102 22.9905 11.75 22.3106 11.4318 21.4205C11.1136 20.5265 10.9545 19.447 10.9545 18.1818C10.9545 16.9242 11.1136 15.8504 11.4318 14.9602C11.7538 14.0663 12.2159 13.3845 12.8182 12.9148C13.4242 12.4413 14.1515 12.2045 15 12.2045C15.8485 12.2045 16.5739 12.4413 17.1761 12.9148C17.7822 13.3845 18.2443 14.0663 18.5625 14.9602C18.8845 15.8504 19.0455 16.9242 19.0455 18.1818C19.0455 19.447 18.8864 20.5265 18.5682 21.4205C18.25 22.3106 17.7898 22.9905 17.1875 23.4602C16.5852 23.9261 15.8561 24.1591 15 24.1591ZM15 22.9091C15.8485 22.9091 16.5076 22.5 16.9773 21.6818C17.447 20.8636 17.6818 19.697 17.6818 18.1818C17.6818 17.1742 17.5739 16.3163 17.358 15.608C17.1458 14.8996 16.839 14.3598 16.4375 13.9886C16.0398 13.6174 15.5606 13.4318 15 13.4318C14.1591 13.4318 13.5019 13.8466 13.0284 14.6761C12.5549 15.5019 12.3182 16.6705 12.3182 18.1818C12.3182 19.1894 12.4242 20.0455 12.6364 20.75C12.8485 21.4545 13.1534 21.9905 13.5511 22.358C13.9527 22.7254 14.4356 22.9091 15 22.9091ZM24.7355 12.3636V24H23.3264V13.8409H23.2582L20.4173 15.7273V14.2955L23.3264 12.3636H24.7355Z" fill="#000D19"/>
</svg>
