<svg width="37" height="37" viewBox="0 0 37 37" fill="none" xmlns="http://www.w3.org/2000/svg">
<circle cx="18.5" cy="18.5" r="18" stroke="#8E8E8E"/>
<path d="M14 24.1591C13.1439 24.1591 12.4148 23.9261 11.8125 23.4602C11.2102 22.9905 10.75 22.3106 10.4318 21.4205C10.1136 20.5265 9.95455 19.447 9.95455 18.1818C9.95455 16.9242 10.1136 15.8504 10.4318 14.9602C10.7538 14.0663 11.2159 13.3845 11.8182 12.9148C12.4242 12.4413 13.1515 12.2045 14 12.2045C14.8485 12.2045 15.5739 12.4413 16.1761 12.9148C16.7822 13.3845 17.2443 14.0663 17.5625 14.9602C17.8845 15.8504 18.0455 16.9242 18.0455 18.1818C18.0455 19.447 17.8864 20.5265 17.5682 21.4205C17.25 22.3106 16.7898 22.9905 16.1875 23.4602C15.5852 23.9261 14.8561 24.1591 14 24.1591ZM14 22.9091C14.8485 22.9091 15.5076 22.5 15.9773 21.6818C16.447 20.8636 16.6818 19.697 16.6818 18.1818C16.6818 17.1742 16.5739 16.3163 16.358 15.608C16.1458 14.8996 15.839 14.3598 15.4375 13.9886C15.0398 13.6174 14.5606 13.4318 14 13.4318C13.1591 13.4318 12.5019 13.8466 12.0284 14.6761C11.5549 15.5019 11.3182 16.6705 11.3182 18.1818C11.3182 19.1894 11.4242 20.0455 11.6364 20.75C11.8485 21.4545 12.1534 21.9905 12.5511 22.358C12.9527 22.7254 13.4356 22.9091 14 22.9091ZM19.6445 24V22.9773L23.4855 18.7727C23.9362 18.2803 24.3074 17.8523 24.5991 17.4886C24.8908 17.1212 25.1067 16.7765 25.2468 16.4545C25.3908 16.1288 25.4627 15.7879 25.4627 15.4318C25.4627 15.0227 25.3642 14.6686 25.1673 14.3693C24.9741 14.0701 24.7089 13.839 24.3718 13.6761C24.0347 13.5133 23.6559 13.4318 23.2355 13.4318C22.7885 13.4318 22.3983 13.5246 22.065 13.7102C21.7355 13.892 21.4798 14.1477 21.298 14.4773C21.1199 14.8068 21.0309 15.1932 21.0309 15.6364H19.69C19.69 14.9545 19.8472 14.3561 20.1616 13.8409C20.476 13.3258 20.904 12.9242 21.4457 12.6364C21.9911 12.3485 22.6029 12.2045 23.2809 12.2045C23.9627 12.2045 24.5669 12.3485 25.0934 12.6364C25.6199 12.9242 26.0328 13.3125 26.332 13.8011C26.6313 14.2898 26.7809 14.8333 26.7809 15.4318C26.7809 15.8598 26.7033 16.2784 26.548 16.6875C26.3964 17.0928 26.1313 17.5455 25.7525 18.0455C25.3775 18.5417 24.8567 19.1477 24.19 19.8636L21.5764 22.6591V22.75H26.9855V24H19.6445Z" fill="#000D19"/>
</svg>
