<svg width="37" height="37" viewBox="0 0 37 37" fill="none" xmlns="http://www.w3.org/2000/svg">
<circle cx="18.5" cy="18.5" r="18" stroke="#8E8E8E"/>
<path d="M14 24.1591C13.1439 24.1591 12.4148 23.9261 11.8125 23.4602C11.2102 22.9905 10.75 22.3106 10.4318 21.4205C10.1136 20.5265 9.95455 19.447 9.95455 18.1818C9.95455 16.9242 10.1136 15.8504 10.4318 14.9602C10.7538 14.0663 11.2159 13.3845 11.8182 12.9148C12.4242 12.4413 13.1515 12.2045 14 12.2045C14.8485 12.2045 15.5739 12.4413 16.1761 12.9148C16.7822 13.3845 17.2443 14.0663 17.5625 14.9602C17.8845 15.8504 18.0455 16.9242 18.0455 18.1818C18.0455 19.447 17.8864 20.5265 17.5682 21.4205C17.25 22.3106 16.7898 22.9905 16.1875 23.4602C15.5852 23.9261 14.8561 24.1591 14 24.1591ZM14 22.9091C14.8485 22.9091 15.5076 22.5 15.9773 21.6818C16.447 20.8636 16.6818 19.697 16.6818 18.1818C16.6818 17.1742 16.5739 16.3163 16.358 15.608C16.1458 14.8996 15.839 14.3598 15.4375 13.9886C15.0398 13.6174 14.5606 13.4318 14 13.4318C13.1591 13.4318 12.5019 13.8466 12.0284 14.6761C11.5549 15.5019 11.3182 16.6705 11.3182 18.1818C11.3182 19.1894 11.4242 20.0455 11.6364 20.75C11.8485 21.4545 12.1534 21.9905 12.5511 22.358C12.9527 22.7254 13.4356 22.9091 14 22.9091ZM23.5764 24.1591C22.8264 24.1591 22.1578 24.0303 21.5707 23.7727C20.9873 23.5152 20.5233 23.1572 20.1786 22.6989C19.8377 22.2367 19.6521 21.7008 19.6218 21.0909H21.0536C21.0839 21.4659 21.2127 21.7898 21.44 22.0625C21.6673 22.3314 21.9646 22.5398 22.332 22.6875C22.6995 22.8352 23.1067 22.9091 23.5536 22.9091C24.0536 22.9091 24.4968 22.822 24.8832 22.6477C25.2695 22.4735 25.5726 22.2311 25.7923 21.9205C26.012 21.6098 26.1218 21.25 26.1218 20.8409C26.1218 20.4129 26.0158 20.036 25.8036 19.7102C25.5915 19.3807 25.2809 19.1231 24.8718 18.9375C24.4627 18.7519 23.9627 18.6591 23.3718 18.6591H22.44V17.4091H23.3718C23.8339 17.4091 24.2392 17.3258 24.5877 17.1591C24.94 16.9924 25.2146 16.7576 25.4116 16.4545C25.6123 16.1515 25.7127 15.7955 25.7127 15.3864C25.7127 14.9924 25.6256 14.6496 25.4514 14.358C25.2771 14.0663 25.0309 13.839 24.7127 13.6761C24.3983 13.5133 24.0271 13.4318 23.5991 13.4318C23.1976 13.4318 22.8188 13.5057 22.4627 13.6534C22.1105 13.7973 21.8226 14.0076 21.5991 14.2841C21.3756 14.5568 21.2544 14.8864 21.2355 15.2727H19.8718C19.8945 14.6629 20.0783 14.1288 20.423 13.6705C20.7677 13.2083 21.2184 12.8485 21.7752 12.5909C22.3358 12.3333 22.9514 12.2045 23.6218 12.2045C24.3415 12.2045 24.9589 12.3504 25.4741 12.642C25.9892 12.9299 26.3851 13.3106 26.6616 13.7841C26.9381 14.2576 27.0764 14.7689 27.0764 15.3182C27.0764 15.9735 26.904 16.5322 26.5593 16.9943C26.2184 17.4564 25.7544 17.7765 25.1673 17.9545V18.0455C25.9021 18.1667 26.476 18.4792 26.8889 18.983C27.3017 19.483 27.5082 20.1023 27.5082 20.8409C27.5082 21.4735 27.3358 22.0417 26.9911 22.5455C26.6502 23.0455 26.1843 23.4394 25.5934 23.7273C25.0025 24.0152 24.3302 24.1591 23.5764 24.1591Z" fill="#000D19"/>
</svg>
