<svg width="171" height="40" viewBox="0 0 171 40" fill="none" xmlns="http://www.w3.org/2000/svg">
<g clip-path="url(#clip0_1_12)">
<path d="M0.693359 11.6581V27.3161C0.693359 29.642 0.693359 30.805 0.889466 31.7714C1.67372 35.6362 4.6943 38.6568 8.55915 39.4411C9.52558 39.6372 10.6885 39.6372 13.0144 39.6372H17.0148H27.2157H27.389H27.3891C30.8718 39.6372 32.6132 39.6372 34.0148 39.1531C36.5805 38.267 38.5967 36.2509 39.4827 33.6852C39.9668 32.2835 39.9668 30.5422 39.9668 27.0595V27.0594V11.6581C39.9668 10.2872 39.9668 9.60182 39.8984 9.0256C39.3639 4.51945 35.8111 0.966632 31.3049 0.432123C30.7287 0.36377 30.0433 0.36377 28.6724 0.36377H27.2157H11.9144C8.54987 0.36377 6.86759 0.363769 5.53117 0.886417C3.55373 1.65975 1.98934 3.22414 1.21601 5.20157C0.693359 6.538 0.693359 8.24467 0.693359 11.6581Z" fill="#E1E1E1"/>
<path d="M28.6762 1.34497H9.03957C4.97266 1.34497 1.67578 4.64185 1.67578 8.70876V28.3454C1.67578 32.4123 4.97266 35.7092 9.03957 35.7092H28.6762C32.7431 35.7092 36.04 32.4123 36.04 28.3454V8.70876C36.04 4.64185 32.7431 1.34497 28.6762 1.34497Z" fill="white"/>
<path d="M16.492 31.1292C19.0642 31.1292 20.73 30.0073 21.5799 28.387H21.7158V30.8006H26.2938V19.0611C26.2938 14.9138 22.781 13.1687 18.9056 13.1687C14.7356 13.1687 11.9934 15.1631 11.3248 18.3358L15.7895 18.6985C16.118 17.5426 17.1492 16.6928 18.883 16.6928C20.526 16.6928 21.4665 17.52 21.4665 18.9478V19.0158C21.4665 20.1376 20.2767 20.2849 17.2512 20.5795C13.8065 20.8968 10.7129 22.0526 10.7129 25.9393C10.7129 29.3841 13.1719 31.1292 16.492 31.1292ZM17.8745 27.7977C16.39 27.7977 15.3249 27.1065 15.3249 25.7807C15.3249 24.4209 16.4467 23.7523 18.1464 23.5144C19.2002 23.3671 20.9226 23.1178 21.5005 22.7325V24.5796C21.5005 26.4039 19.9935 27.7977 17.8745 27.7977Z" fill="black"/>
</g>
<g clip-path="url(#clip1_1_12)">
<path d="M43.8506 11.6581V27.3161C43.8506 29.642 43.8506 30.805 44.0467 31.7713C44.8309 35.6362 47.8515 38.6568 51.7164 39.4411C52.6829 39.6372 53.8458 39.6372 56.1716 39.6372H60.172H70.3729H70.5462C74.029 39.6372 75.7704 39.6372 77.172 39.1531C79.7377 38.267 81.7539 36.2509 82.6399 33.6852C83.124 32.2835 83.124 30.5422 83.124 27.0594V11.6581C83.124 10.2872 83.124 9.60181 83.0556 9.0256C82.5211 4.51946 78.9683 0.966635 74.4621 0.432123C73.8859 0.36377 73.2005 0.36377 71.8296 0.36377H70.3729H55.0716C51.7071 0.36377 50.0248 0.36377 48.6884 0.886421C46.711 1.65976 45.1466 3.22414 44.3732 5.20158C43.8506 6.538 43.8506 8.24467 43.8506 11.6581Z" fill="#E1E1E1"/>
<path d="M71.8325 1.34497H52.1958C48.1289 1.34497 44.832 4.64185 44.832 8.70876V28.3454C44.832 32.4123 48.1289 35.7092 52.1958 35.7092H71.8325C75.8994 35.7092 79.1962 32.4123 79.1962 28.3454V8.70876C79.1962 4.64185 75.8994 1.34497 71.8325 1.34497Z" fill="white"/>
<path d="M62.5829 31.1408C66.8889 31.1408 69.7897 29.0445 70.4697 25.815L66.005 25.5204C65.5178 26.8462 64.2713 27.5374 62.6622 27.5374C60.2486 27.5374 58.7189 25.9396 58.7189 23.3447V23.3334H70.5717V22.0076C70.5717 16.0925 66.9909 13.169 62.3902 13.169C57.2684 13.169 53.9482 16.8064 53.9482 22.1775C53.9482 27.696 57.2231 31.1408 62.5829 31.1408ZM58.7189 20.3418C58.8208 18.3588 60.328 16.7724 62.4696 16.7724C64.566 16.7724 66.0164 18.2682 66.0277 20.3418H58.7189ZM60.5432 11.152H63.954L67.4102 5.99609H62.9455L60.5432 11.152Z" fill="black"/>
</g>
<g clip-path="url(#clip2_1_12)">
<path d="M87.7207 11.6581V27.3161C87.7207 29.642 87.7207 30.805 87.9168 31.7713C88.7011 35.6362 91.7216 38.6568 95.5865 39.4411C96.5529 39.6372 97.7159 39.6372 100.042 39.6372H104.042H114.243H114.416C117.899 39.6372 119.64 39.6372 121.042 39.1531C123.608 38.267 125.624 36.2509 126.51 33.6852C126.994 32.2835 126.994 30.5422 126.994 27.0594V11.6581C126.994 10.2872 126.994 9.60181 126.926 9.0256C126.391 4.51946 122.838 0.966635 118.332 0.432123C117.756 0.36377 117.071 0.36377 115.7 0.36377H114.243H98.9416C95.5772 0.36377 93.8949 0.36377 92.5585 0.886421C90.5811 1.65976 89.0167 3.22414 88.2434 5.20158C87.7207 6.538 87.7207 8.24467 87.7207 11.6581Z" fill="#E1E1E1"/>
<path d="M115.704 1.34595H96.0669C92 1.34595 88.7031 4.64283 88.7031 8.70973V28.3464C88.7031 32.4133 92 35.7102 96.0669 35.7102H115.704C119.77 35.7102 123.067 32.4133 123.067 28.3464V8.70973C123.067 4.64283 119.77 1.34595 115.704 1.34595Z" fill="white"/>
<path d="M98.6357 30.8379H113.312V26.9727H104.991V26.8476L113.017 16.5252V13.3762H98.9313V17.2414H107.185V17.3665L98.6357 27.9503V30.8379Z" fill="black"/>
</g>
<g clip-path="url(#clip3_1_12)">
<path d="M131.407 11.6581V27.3161C131.407 29.642 131.407 30.805 131.603 31.7714C132.388 35.6362 135.408 38.6568 139.273 39.4411C140.239 39.6372 141.402 39.6372 143.728 39.6372H147.729H157.93H158.103H158.103C161.586 39.6372 163.327 39.6372 164.729 39.1531C167.294 38.267 169.311 36.2509 170.197 33.6852C170.681 32.2835 170.681 30.5422 170.681 27.0595V27.0594V11.6581C170.681 10.2872 170.681 9.60182 170.612 9.0256C170.078 4.51945 166.525 0.966632 162.019 0.432123C161.443 0.36377 160.757 0.36377 159.386 0.36377H157.93H142.628C139.264 0.36377 137.581 0.363769 136.245 0.886417C134.268 1.65975 132.703 3.22414 131.93 5.20157C131.407 6.538 131.407 8.24467 131.407 11.6581Z" fill="#E1E1E1"/>
<path d="M159.39 1.34497H139.753C135.687 1.34497 132.39 4.64185 132.39 8.70876V28.3454C132.39 32.4123 135.687 35.7092 139.753 35.7092H159.39C163.457 35.7092 166.754 32.4123 166.754 28.3454V8.70876C166.754 4.64185 163.457 1.34497 159.39 1.34497Z" fill="white"/>
<path d="M147.206 31.1292C149.778 31.1292 151.444 30.0073 152.294 28.387H152.43V30.8006H157.008V19.0611C157.008 14.9138 153.495 13.1687 149.619 13.1687C145.449 13.1687 142.707 15.1631 142.039 18.3358L146.503 18.6985C146.832 17.5426 147.863 16.6928 149.597 16.6928C151.24 16.6928 152.18 17.52 152.18 18.9478V19.0158C152.18 20.1376 150.991 20.2849 147.965 20.5795C144.52 20.8968 141.427 22.0526 141.427 25.9393C141.427 29.3841 143.886 31.1292 147.206 31.1292ZM148.588 27.7977C147.104 27.7977 146.039 27.1065 146.039 25.7807C146.039 24.4209 147.161 23.7523 148.86 23.5144C149.914 23.3671 151.636 23.1178 152.214 22.7325V24.5796C152.214 26.4039 150.707 27.7977 148.588 27.7977Z" fill="black"/>
</g>
<defs>
<clipPath id="clip0_1_12">
<rect width="40" height="40" fill="white"/>
</clipPath>
<clipPath id="clip1_1_12">
<rect width="40" height="40" fill="white" transform="translate(43.5713)"/>
</clipPath>
<clipPath id="clip2_1_12">
<rect width="40" height="40" fill="white" transform="translate(87.1426)"/>
</clipPath>
<clipPath id="clip3_1_12">
<rect width="40" height="40" fill="white" transform="translate(130.714)"/>
</clipPath>
</defs>
</svg>
